<svg enable-background="new 0 0 140 140" height="512" viewBox="0 0 140 140" width="512" xmlns="http://www.w3.org/2000/svg"><circle cx="70" cy="70" fill="#efc84a" r="64"/><path d="m90.5325012 32.6816292c-8.2399902-1.579958-16.4699707-1.579958-24.7099609 0-1.8200073.3500366-3.1199913 1.960022-3.1199913 3.8099976v18.1100464c-.9299927-.75-2.0200195-1.2399902-3.1000366-.8600464-1.4599609.5100098-1.9899902 2.2600098-2.2399902 3.7800293-1.2199707 7.2100182-5.8499756 12.9299889-3.75 19.9299889.7600098 2.5400391 1.7399902 5.1099854 1.5 7.75-.0100098.0300293-.0100098.0700684-.0200195.0999756l-1.7099609-1.7199707-11.4100343 11.4100341 38.1956139 38.1955566c28.8894653-4.6132812 51.3110962-28.5566406 53.616272-58.1538086l-41.0218507-41.0217857c-.5499878-.6699829-1.3300171-1.1599732-2.2300415-1.3300171z" opacity=".1"/><path d="m57.8437347 109.2380142c3.6358833-2.2390976 12.1690674-5.4059372 15.8250656-7.61203 1.7038879-1.0281525 3.115654-2.466423 4.5075302-3.8887482 5.7858658-5.912468 8.1254425-10.6709137 13.9113083-16.583374l1.5617142-6.5895767-30.9460526-5.1244507c-.7441101-3.0416031 3.1265869-11.2753983 1.1397171-13.6956024-1.0597763-1.2909088-2.6690178-2.5559196-4.2444-2.0011597-1.4535255.5118484-1.9847183 2.2629395-2.2402382 3.7826195-1.2109756 7.2021599-5.8435669 12.9265327-3.748867 19.9229393.7601891 2.5390625 1.7438469 5.1131973 1.4999542 7.7523727-.2021065 2.1870346-1.2336235 4.2025375-2.3133125 6.1151962-1.3570251 2.4039612-2.9802818 4.88797-5.5251465 5.9576416" fill="#e69871"/><path d="m90.5322342 32.6812973c-8.2372665-1.5843201-16.4745407-1.5843201-24.7118149 0-1.8156815.3491974-3.1171188 1.9595184-3.1171188 3.8083954v42.1546478c0 1.8766327 1.3423996 3.4993515 3.1908798 3.8231964 8.6850281 1.5214386 16.8639069 1.4470367 24.6161346.0270386 1.8270416-.3347244 3.1390381-1.9528809 3.1390381-3.8104019v-42.1944809c0-1.848877-1.3014374-3.459198-3.1171188-3.8083954z" fill="#3a556a"/><path d="m64.462875 39.758961h27.426903v35.559296h-27.426903z" fill="#27a2db"/><g fill="#e69871"><path d="m97.8611908 49.1517601c-.5467224-1.5766373-2.2680817-2.4115143-3.844635-1.8648376l-5.2327957 1.8144798c-1.5766373.5467186-2.4115982 2.2680359-1.8648834 3.8447151.5467224 1.5766411 2.2680817 2.4115181 3.8447189 1.8647995l5.2327957-1.8143997c1.576561-.5467186 2.4115219-2.2680779 1.8647995-3.8447571z"/><path d="m97.8611908 55.6414413c-.5467224-1.5766373-2.2680817-2.4115181-3.844635-1.8648376l-5.2327957 1.8144798c-1.5766373.5467186-2.4115982 2.2680359-1.8648834 3.8447151.5467224 1.5766373 2.2680817 2.4115181 3.8447189 1.8647995l5.2327957-1.8143997c1.576561-.5467186 2.4115219-2.2680778 1.8647995-3.8447571z"/><path d="m97.8611908 62.1311226c-.5467224-1.5766373-2.2680817-2.4115181-3.844635-1.8648376l-5.2327957 1.814476c-1.5766373.5467224-2.4115982 2.2680397-1.8648834 3.8447151.5467224 1.5766449 2.2680817 2.4115219 3.8447189 1.8647995l5.2327957-1.8143997c1.576561-.5467148 2.4115219-2.2680741 1.8647995-3.8447533z"/><path d="m97.8871765 68.1617432c-.4619598-1.3321915-1.9164276-2.0376282-3.2485504-1.5757065l-4.4214859 1.5331497c-1.3321915.4619598-2.0376968 1.9163971-1.575737 3.2486191.4619522 1.3321915 1.9164276 2.0376282 3.2486115 1.575676l4.4214859-1.5330887c1.3321228-.4619522 2.0376281-1.9164277 1.5756759-3.2486496z"/></g><path d="m50.144119 84.923882h16.132282v29.798637h-16.132282z" fill="#e56353" transform="matrix(.707 -.707 .707 .707 -53.536 70.398)"/><path d="m84.3283234 58.4662476c-.2844772-.3130646-.6192245-.5769882-.9905853-.7803535l-2.3833466-1.3059158-.389595-.2136688-.0004501.0000992-.5379333-.9445839v-.7911224c.4961166-.5895538.8467484-1.4174728.9747696-2.3643799.1882629-.059185.3789673-.3256454.4627304-.6787949.0933304-.3933144.0206375-.7514229-.1599579-.8540611.161499-.4742851.294632-.9705124.309906-1.3521919.0414352-1.0338058-.1475372-1.8976669-.4221039-2.5959091-.2745667-.6982613-2.1729736-1.7825317-3.6873093-1.5378113-1.514328.2447166-2.709198 1.4761887-2.7686996 2.5105362-.021698.3765144.0813904 1.063942.2210007 1.7857742.0675888.4459648.1820984.9243431.2521973 1.3628159-.057579-.0230446-.1145782-.0289154-.1678543-.0128517-.2190094.0660629-.2923813.4651566-.1638107.8913994.1048203.3474846.3111877.6020241.5026627.6498108.1643829.835125.4995728 1.5649796.9460068 2.1097488v.877037l-.5378647.9445343-.0002289-.0000496-.3839111.2102356-2.3901825 1.3093491c-.3713303.2033653-.7060776.467289-.9894333.7803535-.6363983.7003784-.9883118 1.6121254-.9883118 2.558136v3.0039062h4.6495895 1.5910416.3270035 1.1485596.3222272 2.0845184 4.1576767v-3.0039062c0-.9460107-.3519134-1.8577577-.9883117-2.5581361z" fill="#e1e6e9"/></svg>